<?xml version="1.0" encoding="UTF-8"?>
<svg width="24px" height="24px" viewBox="0 0 24 24" version="1.1" xmlns="http://www.w3.org/2000/svg" xmlns:xlink="http://www.w3.org/1999/xlink">
    <!-- Generator: sketchtool 58 (101010) - https://sketch.com -->
    <title>17C82945-9916-4DFA-829B-915DFDC1F7EB</title>
    <desc>Created with sketchtool.</desc>
    <g id="Technic" stroke="none" stroke-width="1" fill="none" fill-rule="evenodd">
        <g id="Tecknic_test" transform="translate(-628.000000, -722.000000)">
            <g id="Group-2-Copy" transform="translate(628.000000, 722.000000)">
                <rect id="Rectangle" x="0" y="0" width="24" height="24"></rect>
                <g id="003-computer-copy" transform="translate(1.000000, 0.500000)" fill="#001424" fill-rule="nonzero">
                    <path d="M8.38678679,15.7548218 L8.21134819,17.3605764 C8.19718666,17.4901568 8.2404299,17.6194308 8.33039355,17.7162944 C8.42029398,17.813158 8.54844318,17.8684211 8.68291449,17.8684211 L13.6964122,17.8684211 C13.8308203,17.8684211 13.9589695,17.8130967 14.0489331,17.7162944 C14.1388336,17.6194308 14.1820768,17.4901568 14.1679785,17.3605764 L13.9925399,15.7548218 L20.2373321,15.7548218 C21.2092935,15.7548218 22,14.9885517 22,14.0466283 L22,2.20819352 C22,1.26627009 21.2091671,0.5 20.2372688,0.5 L1.76266793,0.5 C0.790706496,0.5 0,1.26627009 0,2.20819352 L0,14.0466283 C0,14.9885517 0.790706496,15.7548218 1.76266793,15.7548218 L8.38678679,15.7548218 Z M13.1693378,16.9494729 L9.20986249,16.9494729 L9.34035088,15.7548218 L13.0387862,15.7548218 L13.1693378,16.9494729 Z M1.76266793,1.41900946 L20.2372688,1.41900946 C20.6863284,1.41900946 21.05162,1.7730119 21.05162,2.20819352 L21.05162,12.6303122 L0.948316738,12.6303122 L0.948316738,2.20819352 C0.948316738,1.7730119 1.31360835,1.41900946 1.76266793,1.41900946 Z M0.948316738,14.0466283 L0.948316738,13.5493217 L21.0515568,13.5493217 L21.0515568,14.0466283 C21.0515568,14.4818099 20.6862652,14.8358124 20.2372056,14.8358124 L1.76266793,14.8358124 C1.31360835,14.8358124 0.948316738,14.4818099 0.948316738,14.0466283 Z" id="Shape" stroke="#001424" stroke-width="0.15"></path>
                    <path d="M12.1123986,4.66895707 C11.9204109,4.47701397 11.6092821,4.47701397 11.4172523,4.66895463 L8.16895501,7.91739251 C7.977015,8.10933253 7.977015,8.42055028 8.16895501,8.6124903 C8.26240028,8.70593556 8.38695504,8.75643359 8.51648047,8.75643359 C8.64594883,8.75643359 8.7705009,8.70590842 8.86400592,8.6124903 L12.1123965,5.36409967 C12.3043369,5.17215931 12.3043369,4.86093998 12.1123945,4.66895296 Z" id="Path" stroke="#FFFFFF" stroke-width="0.05"></path>
                    <path d="M14.0377424,6.55145707 C13.845755,6.35951431 13.5346278,6.35951431 13.3426425,6.55145501 L12.0486113,7.84548626 C11.8566709,8.03742662 11.8566709,8.34864596 12.0486113,8.54063092 C12.1420565,8.63407619 12.2666113,8.68457422 12.3961367,8.68457422 C12.5257202,8.68457422 12.6501933,8.63409975 12.7436622,8.54063092 L14.0376955,7.24659762 C14.2296734,7.05466428 14.2296872,6.74344654 14.0377382,6.55145296 Z" id="Path" stroke="#FFFFFF" stroke-width="0.05"></path>
                    <path d="M20.7691553,22.7816554 C20.8602157,22.6624029 20.8664426,22.5140292 20.7854926,22.3902514 L19.7936713,19.7151338 C19.7072309,19.5829444 19.5354884,19.5 19.3480782,19.5 L2.65189515,19.5 C2.46455187,19.5 2.29274241,19.5829444 2.20630204,19.7151338 L1.21448074,22.3902514 C1.13359772,22.5140292 1.13975768,22.6624029 1.23081803,22.7816554 C1.32187838,22.900908 1.48464876,22.9736842 1.66007385,22.9736842 L20.3398995,22.9736842 C20.5153246,22.9737373 20.678095,22.900908 20.7691553,22.7816554 Z M2.48704913,22.1751709 L2.95681341,20.2986196 L19.043093,20.2986196 L19.5129242,22.1751709 L2.48704913,22.1751709 Z" id="Shape" stroke="#001424" stroke-width="0.15"></path>
                </g>
            </g>
        </g>
    </g>
</svg>