<?xml version="1.0" encoding="UTF-8"?>
<svg width="24px" height="24px" viewBox="0 0 24 24" version="1.1" xmlns="http://www.w3.org/2000/svg" xmlns:xlink="http://www.w3.org/1999/xlink">
    <!-- Generator: sketchtool 58 (101010) - https://sketch.com -->
    <title>AA27FC0F-1B76-4BCE-BC1A-DA42B3BA891D</title>
    <desc>Created with sketchtool.</desc>
    <g id="Technic" stroke="none" stroke-width="1" fill="none" fill-rule="evenodd">
        <g id="Tecknic_test" transform="translate(-1124.000000, -493.000000)">
            <g id="Group-2" transform="translate(1124.000000, 493.000000)">
                <rect id="Rectangle" x="0" y="0" width="24" height="24"></rect>
                <g id="002-laptop-2" transform="translate(0.000000, 4.000000)" fill="#001424" fill-rule="nonzero">
                    <g id="002-laptop">
                        <path d="M19.8209063,2.26926563 L4.17909375,2.26926563 C3.89385938,2.26926563 3.66257813,2.5005 3.66257813,2.78578125 L3.66257813,10.5869062 C3.66257813,10.8721875 3.89385937,11.1034219 4.17909375,11.1034219 C4.46432813,11.1034219 4.69560938,10.8721875 4.69560938,10.5869062 L4.69560938,3.30225 L19.3043906,3.30225 L19.3043906,10.5868594 L19.3043906,10.5868594 C19.3043906,10.8721406 19.5356719,11.1034219 19.8209063,11.1034219 C20.1061406,11.1034219 20.3374219,10.8721406 20.3374219,10.5868594 L20.3374219,2.78573438 C20.3374219,2.5005 20.1060937,2.26926563 19.8209063,2.26926563 Z" id="Path"></path>
                        <path d="M23.5351406,12.4313437 L22.5838125,12.4313437 L22.5838125,1.58423438 C22.5838125,0.723328125 21.8834063,0.022921875 21.0225,0.022921875 L2.9775,0.022921875 C2.11654688,0.022921875 1.4161875,0.723328125 1.4161875,1.58423438 L1.4161875,12.4313437 L0.464859375,12.4313437 C0.208125,12.4313437 0,12.6394219 0,12.8962031 L0,13.8087656 C0,15.0733125 1.02876562,16.1020781 2.2933125,16.1020781 L21.7066406,16.1020781 C22.9711875,16.1020781 23.9999531,15.0733125 23.9999531,13.8087656 L23.9999531,12.8962031 C23.9999531,12.6394219 23.7919219,12.4313437 23.5351406,12.4313437 Z M2.44917188,1.58423437 C2.44917188,1.29295312 2.68621875,1.05590625 2.9775,1.05590625 L21.0224062,1.05590625 C21.3137813,1.05590625 21.5507344,1.29290625 21.5507344,1.58423437 L21.5507344,12.4313437 L14.5569844,12.4313437 C14.5240313,12.4302656 14.4900469,12.4330781 14.4562969,12.4395937 C14.2374844,12.4816875 14.079375,12.6732187 14.079375,12.8960156 C14.079375,13.2884062 13.7601562,13.6075781 13.3678594,13.6075781 L10.6321875,13.6075781 C10.2397969,13.6075781 9.92067188,13.2883594 9.92067188,12.8960156 C9.92067188,12.6357187 9.705,12.4256719 9.44503125,12.43125 L2.44917188,12.43125 L2.44917188,1.58423437 Z M23.0703281,13.8087656 L23.0703281,13.8087656 C23.0703281,14.5606875 22.4585156,15.1723594 21.7066875,15.1723594 L2.2933125,15.1723594 C1.5414375,15.1723594 0.92971875,14.5606875 0.92971875,13.8087656 L0.92971875,13.3610625 L9.05798437,13.3610625 C9.2589375,14.0403281 9.88860937,14.5373437 10.6321406,14.5373437 L13.3678125,14.5373437 C14.1113437,14.5373437 14.7410156,14.0402812 14.9420156,13.3610625 L23.0703281,13.3610625 L23.0703281,13.8087656 L23.0703281,13.8087656 Z" id="Shape"></path>
                        <path d="M12.7655156,5.27151563 C12.5637656,5.0698125 12.2368125,5.0698125 12.0350156,5.27151563 L8.78671875,8.51995313 C8.58501562,8.72165625 8.58501562,9.04870312 8.78671875,9.25040625 C8.88759375,9.35128125 9.01978125,9.40167188 9.15192187,9.40167188 C9.28410937,9.40167188 9.41625,9.3511875 9.517125,9.25040625 L12.7655156,6.00201563 C12.9672188,5.8003125 12.9672188,5.47326562 12.7655156,5.27151563 Z" id="Path"></path>
                        <path d="M14.6908594,7.15401562 C14.4891094,6.9523125 14.1621562,6.9523125 13.9604062,7.15401562 L12.666375,8.44804688 C12.4646719,8.64975 12.4646719,8.97679687 12.666375,9.17854688 C12.76725,9.27942188 12.8994375,9.3298125 13.0315781,9.3298125 C13.1638125,9.3298125 13.2959062,9.27942188 13.3967812,9.17854688 L14.6908125,7.88451563 C14.8925625,7.6828125 14.8925625,7.35576563 14.6908594,7.15401562 Z" id="Path"></path>
                    </g>
                </g>
            </g>
        </g>
    </g>
</svg>