<?xml version="1.0" encoding="UTF-8"?>
<svg width="24px" height="24px" viewBox="0 0 24 24" version="1.1" xmlns="http://www.w3.org/2000/svg" xmlns:xlink="http://www.w3.org/1999/xlink">
    <!-- Generator: sketchtool 58 (101010) - https://sketch.com -->
    <title>1D3B64F7-5FBB-4C22-A77A-2CA7C92F1FEE</title>
    <desc>Created with sketchtool.</desc>
    <g id="Technic" stroke="none" stroke-width="1" fill="none" fill-rule="evenodd">
        <g id="Tecknic_test" transform="translate(-628.000000, -264.000000)">
            <g id="Group-5-Copy-3" transform="translate(628.000000, 264.000000)">
                <rect id="Rectangle" x="0" y="0" width="24" height="24"></rect>
                <g id="001-monitor-copy-5" transform="translate(0.000000, 2.000000)" fill="#001424" fill-rule="nonzero">
                    <path d="M22.5512287,0 L1.44886503,0 C0.649971289,0 0,0.642040147 0,1.43118555 L0,15.8230993 C0,16.6122447 0.649971289,17.2542849 1.44886503,17.2542849 L8.67983078,17.2542849 L8.67983078,18.2956438 C8.67983078,19.2502769 7.89354646,20.0269667 6.92712081,20.0269667 L5.33350521,20.0269667 C5.02797277,20.0269667 4.78023742,20.2716328 4.78023742,20.5734834 C4.78023742,20.8753339 5.02797277,21.12 5.33350521,21.12 L18.6664948,21.12 C18.9720272,21.12 19.2197626,20.8753339 19.2197626,20.5734834 C19.2197626,20.2716328 18.9720272,20.0269667 18.6664948,20.0269667 L17.0728323,20.0269667 C16.1064067,20.0269667 15.3201223,19.2502769 15.3201223,18.2956438 L15.3201223,17.2543312 L22.5510881,17.2543312 C23.3499818,17.2543312 24,16.612291 24,15.8231456 L24,1.43118555 C24,0.642040147 23.3501225,0 22.5512287,0 Z M9.18378587,20.0270593 C9.5609436,19.5484695 9.7864601,18.9478244 9.7864601,18.2957364 L9.7864601,17.2543775 L14.2136805,17.2543775 L14.2136805,18.2957364 C14.2136805,18.9478244 14.439197,19.5485158 14.8163548,20.0270593 L9.18378587,20.0270593 Z M22.8935582,15.8231456 C22.8935582,16.0096086 22.7399951,16.1613442 22.5511818,16.1613442 L1.44886503,16.1613442 C1.26009867,16.1613442 1.1064887,16.0096549 1.1064887,15.8231456 L1.1064887,12.9508193 L22.8935582,12.9508193 L22.8935582,15.8231456 Z M22.8936051,11.8577397 L1.10653557,11.8577397 L1.10653557,1.43118555 C1.10653557,1.24472258 1.26009867,1.09298699 1.44891191,1.09298699 L22.5511818,1.09298699 C22.7399482,1.09298699 22.8936051,1.24467627 22.8936051,1.43118555 L22.8936051,11.8577397 L22.8936051,11.8577397 Z" id="Shape"></path>
                    <circle id="Oval" cx="12" cy="14.88" r="1"></circle>
                    <path d="M13.2849605,3.99503909 C13.0781964,3.7883203 12.743113,3.7883203 12.5362591,3.99503909 L8.79503946,7.73625003 C8.58832018,7.94296882 8.58832018,8.27818605 8.79503946,8.48494969 C8.89846637,8.58833152 9.0338722,8.64 9.16941259,8.64 C9.30495298,8.64 9.44035881,8.58833152 9.54374087,8.48494969 L13.2849605,4.74373876 C13.4916798,4.53701997 13.4916798,4.20180273 13.2849605,3.99503909 Z" id="Path"></path>
                    <path d="M15.1848376,5.9351737 C14.9513385,5.70161721 14.5727639,5.70161721 14.3390114,5.93512302 L12.6551624,7.61891882 C12.4216125,7.85252598 12.4216125,8.23126349 12.6551624,8.46481997 C12.7719626,8.58162355 12.9249937,8.64 13.0780755,8.64 C13.2311066,8.64 13.3841884,8.58162355 13.5009886,8.46481997 L15.1848376,6.78102417 C15.4183875,6.54746769 15.4183875,6.16873018 15.1848376,5.9351737 Z" id="Path"></path>
                </g>
            </g>
        </g>
    </g>
</svg>