<?xml version="1.0" encoding="UTF-8"?>
<svg width="24px" height="24px" viewBox="0 0 24 24" version="1.1" xmlns="http://www.w3.org/2000/svg" xmlns:xlink="http://www.w3.org/1999/xlink">
    <!-- Generator: sketchtool 58 (101010) - https://sketch.com -->
    <title>86997C75-E69A-438C-BCEB-BAA9D3A39F67</title>
    <desc>Created with sketchtool.</desc>
    <g id="Technic" stroke="none" stroke-width="1" fill="none" fill-rule="evenodd">
        <g id="Tecknic_test" transform="translate(-1124.000000, -264.000000)">
            <g id="Group-Copy-2" transform="translate(1124.000000, 264.000000)">
                <rect id="Rectangle" x="0" y="0" width="24" height="24"></rect>
                <g id="fax-copy-3" transform="translate(0.000000, 2.000000)" fill="#000000" fill-rule="nonzero" stroke="#FFFFFF" stroke-width="0.35">
                    <path d="M21.890625,1.4 L21.1875,1.4 L9.9375,1.4 L8.4103125,1.4 C8.1200625,0.585293333 7.33851563,0 6.421875,0 L4.921875,0 C4.00523437,0 3.2236875,0.585293333 2.9334375,1.4 L2.109375,1.4 C0.946265625,1.4 0,2.34206 0,3.5 L0,17.5 C0,18.65794 0.946265625,19.6 2.109375,19.6 L2.9334375,19.6 C3.2236875,20.4147067 4.00523437,21 4.921875,21 L6.421875,21 C7.33851563,21 8.1200625,20.4147067 8.4103125,19.6 L21.890625,19.6 C23.0537344,19.6 24,18.65794 24,17.5 L24,3.5 C24,2.34206 23.0537344,1.4 21.890625,1.4 Z M2.8125,18.2 L2.109375,18.2 C1.72167187,18.2 1.40625,17.88598 1.40625,17.5 L1.40625,3.5 C1.40625,3.11402 1.72167187,2.8 2.109375,2.8 L2.8125,2.8 L2.8125,18.2 Z M7.125,18.9 C7.125,19.28598 6.80957812,19.6 6.421875,19.6 L4.921875,19.6 C4.53417187,19.6 4.21875,19.28598 4.21875,18.9 L4.21875,2.1 C4.21875,1.71402 4.53417187,1.4 4.921875,1.4 L6.421875,1.4 C6.80957813,1.4 7.125,1.71402 7.125,2.1 L7.125,18.9 Z M22.59375,17.5 C22.59375,17.88598 22.2783281,18.2 21.890625,18.2 L8.53125,18.2 L8.53125,2.8 L21.890625,2.8 C22.2783281,2.8 22.59375,3.11402 22.59375,3.5 L22.59375,17.5 Z" id="Shape"></path>
                    <path d="M12,15.75 L10.5,15.75 C10.0858,15.75 9.75,16.0858 9.75,16.5 C9.75,16.9142 10.0858,17.25 10.5,17.25 L12,17.25 C12.4142,17.25 12.75,16.9142 12.75,16.5 C12.75,16.0858 12.4142,15.75 12,15.75 Z" id="Path"></path>
                    <path d="M16.5,15.75 L15,15.75 C14.5858,15.75 14.25,16.0858 14.25,16.5 C14.25,16.9142 14.5858,17.25 15,17.25 L16.5,17.25 C16.9142,17.25 17.25,16.9142 17.25,16.5 C17.25,16.0858 16.9142,15.75 16.5,15.75 Z" id="Path"></path>
                    <path d="M20.25,15.75 L18.75,15.75 C18.3358,15.75 18,16.0858 18,16.5 C18,16.9142 18.3358,17.25 18.75,17.25 L20.25,17.25 C20.6642,17.25 21,16.9142 21,16.5 C21,16.0858 20.6642,15.75 20.25,15.75 Z" id="Path"></path>
                    <path d="M12,12.75 L10.5,12.75 C10.0858,12.75 9.75,13.0858 9.75,13.5 C9.75,13.9142 10.0858,14.25 10.5,14.25 L12,14.25 C12.4142,14.25 12.75,13.9142 12.75,13.5 C12.75,13.0858 12.4142,12.75 12,12.75 Z" id="Path"></path>
                    <path d="M16.5,12.75 L15,12.75 C14.5858,12.75 14.25,13.0858 14.25,13.5 C14.25,13.9142 14.5858,14.25 15,14.25 L16.5,14.25 C16.9142,14.25 17.25,13.9142 17.25,13.5 C17.25,13.0858 16.9142,12.75 16.5,12.75 Z" id="Path"></path>
                    <path d="M20.25,12.75 L18.75,12.75 C18.3358,12.75 18,13.0858 18,13.5 C18,13.9142 18.3358,14.25 18.75,14.25 L20.25,14.25 C20.6642,14.25 21,13.9142 21,13.5 C21,13.0858 20.6642,12.75 20.25,12.75 Z" id="Path"></path>
                    <path d="M12,9.75 L10.5,9.75 C10.0858,9.75 9.75,10.0858 9.75,10.5 C9.75,10.9142 10.0858,11.25 10.5,11.25 L12,11.25 C12.4142,11.25 12.75,10.9142 12.75,10.5 C12.75,10.0858 12.4142,9.75 12,9.75 Z" id="Path"></path>
                    <path d="M16.5,9.75 L15,9.75 C14.5858,9.75 14.25,10.0858 14.25,10.5 C14.25,10.9142 14.5858,11.25 15,11.25 L16.5,11.25 C16.9142,11.25 17.25,10.9142 17.25,10.5 C17.25,10.0858 16.9142,9.75 16.5,9.75 Z" id="Path"></path>
                    <path d="M20.25,9.75 L18.75,9.75 C18.3358,9.75 18,10.0858 18,10.5 C18,10.9142 18.3358,11.25 18.75,11.25 L20.25,11.25 C20.6642,11.25 21,10.9142 21,10.5 C21,10.0858 20.6642,9.75 20.25,9.75 Z" id="Path"></path>
                    <path d="M20.296875,4.5 L10.453125,4.5 C10.0648125,4.5 9.75,4.77983333 9.75,5.125 L9.75,7.625 C9.75,7.97016667 10.0648125,8.25 10.453125,8.25 L20.296875,8.25 C20.6851875,8.25 21,7.97016667 21,7.625 L21,5.125 C21,4.77983333 20.6851875,4.5 20.296875,4.5 Z M19.59375,7 L11.15625,7 L11.15625,5.75 L19.59375,5.75 L19.59375,7 Z" id="Shape"></path>
                </g>
            </g>
        </g>
    </g>
</svg>