<?xml version="1.0" encoding="UTF-8"?>
<svg width="24px" height="24px" viewBox="0 0 24 24" version="1.1" xmlns="http://www.w3.org/2000/svg" xmlns:xlink="http://www.w3.org/1999/xlink">
    <!-- Generator: sketchtool 58 (101010) - https://sketch.com -->
    <title>186F11D0-81E6-4BF0-B788-675F6252E05A</title>
    <desc>Created with sketchtool.</desc>
    <g id="Technic" stroke="none" stroke-width="1" fill="none" fill-rule="evenodd">
        <g id="Tecknic_test" transform="translate(-628.000000, -493.000000)" fill="#001424" fill-rule="nonzero" stroke="#001424" stroke-width="0.2">
            <g id="Group" transform="translate(628.000000, 493.000000)">
                <g id="server" transform="translate(1.000000, 1.000000)">
                    <path d="M3.85,2.38333333 C2.9403,2.38333333 2.2,3.12363333 2.2,4.03333333 C2.2,4.94303333 2.9403,5.68333333 3.85,5.68333333 C4.7597,5.68333333 5.5,4.94303333 5.5,4.03333333 C5.5,3.12363333 4.7597,2.38333333 3.85,2.38333333 Z M3.85,4.95 C3.34473333,4.95 2.93333333,4.53896667 2.93333333,4.03333333 C2.93333333,3.5277 3.34473333,3.11666667 3.85,3.11666667 C4.35526667,3.11666667 4.76666667,3.5277 4.76666667,4.03333333 C4.76666667,4.53896667 4.35526667,4.95 3.85,4.95 Z" id="Shape"></path>
                    <circle id="Oval" cx="18.3333333" cy="4.03333333" r="1"></circle>
                    <circle id="Oval" cx="16.8666667" cy="4.03333333" r="1"></circle>
                    <circle id="Oval" cx="15.4" cy="4.03333333" r="1"></circle>
                    <circle id="Oval" cx="13.9333333" cy="4.03333333" r="1"></circle>
                    <circle id="Oval" cx="12.4666667" cy="4.03333333" r="1"></circle>
                    <path d="M22,6.19373333 L22,1.87293333 C22,0.941233333 21.2421,0.183333333 20.3104,0.183333333 L1.6896,0.183333333 C0.7579,0.183333333 0,0.941233333 0,1.87293333 L0,6.19336667 C0,6.732 0.257766667,7.20683333 0.651566667,7.5163 C0.257766667,7.82613333 0,8.30133333 0,8.8396 L0,13.1600333 C0,13.6986667 0.257766667,14.1735 0.651566667,14.4829667 C0.257766667,14.7928 0,15.268 0,15.8062667 L0,20.1267 C0,21.0587667 0.7579,21.8166667 1.6896,21.8166667 L20.3100333,21.8166667 C21.2417333,21.8166667 21.9996333,21.0587667 21.9996333,20.1270667 L21.9996333,15.8062667 C21.9996333,15.2676333 21.7418667,14.7928 21.3480667,14.4833333 C21.7422333,14.1738667 22,13.6986667 22,13.1604 L22,8.8396 C22,8.30096667 21.7422333,7.82613333 21.3484333,7.51666667 C21.7422333,7.2072 22,6.732 22,6.19373333 Z M21.2666667,15.8062667 L21.2666667,20.1267 C21.2666667,20.6539667 20.8376667,21.0829669 20.3104,21.0829669 L1.6896,21.0829669 C1.16233333,21.0833333 0.733333333,20.6543333 0.733333333,20.1270667 L0.733333333,15.8062667 C0.733333333,15.279 1.16233333,14.85 1.6896,14.85 L20.3100333,14.85 C20.8376667,14.85 21.2666667,15.279 21.2666667,15.8062667 Z M21.2666667,8.8396 L21.2666667,13.1600333 C21.2666667,13.6873 20.8376667,14.1163002 20.3104,14.1163002 L1.6896,14.1163002 C1.16233333,14.1166667 0.733333333,13.6876667 0.733333333,13.1604 L0.733333333,8.8396 C0.733333333,8.31233333 1.16233333,7.88333333 1.6896,7.88333333 L20.3100333,7.88333333 C20.8376667,7.88333333 21.2666667,8.31233333 21.2666667,8.8396 Z M1.6896,7.15 C1.16233333,7.15 0.733333333,6.721 0.733333333,6.19373333 L0.733333333,1.87293333 C0.733333333,1.34566667 1.16233333,0.916666667 1.6896,0.916666667 L20.3100333,0.916666667 C20.8376667,0.916666667 21.2666667,1.34566667 21.2666667,1.87293333 L21.2666667,6.19336667 C21.2666667,6.72063333 20.8376667,7.14963333 20.3104,7.14963333 L1.6896,7.14963333 L1.6896,7.15 Z" id="Shape"></path>
                    <path d="M3.85,12.65 C4.7597,12.65 5.5,11.9097 5.5,11 C5.5,10.0903 4.7597,9.35 3.85,9.35 C2.9403,9.35 2.2,10.0903 2.2,11 C2.2,11.9097 2.9403,12.65 3.85,12.65 Z M3.85,10.0833333 C4.35526667,10.0833333 4.76666667,10.4943667 4.76666667,11 C4.76666667,11.5056333 4.35526667,11.9166667 3.85,11.9166667 C3.34473333,11.9166667 2.93333333,11.5056333 2.93333333,11 C2.93333333,10.4943667 3.34473333,10.0833333 3.85,10.0833333 Z" id="Shape"></path>
                    <circle id="Oval" cx="18.3333333" cy="10.45" r="1"></circle>
                    <circle id="Oval" cx="16.8666667" cy="10.45" r="1"></circle>
                    <circle id="Oval" cx="15.4" cy="10.45" r="1"></circle>
                    <circle id="Oval" cx="13.9333333" cy="10.45" r="1"></circle>
                    <circle id="Oval" cx="12.4666667" cy="10.45" r="1"></circle>
                    <path d="M3.85,19.6166667 C4.7597,19.6166667 5.5,18.8763667 5.5,17.9666667 C5.5,17.0569667 4.7597,16.3166667 3.85,16.3166667 C2.9403,16.3166667 2.2,17.0569667 2.2,17.9666667 C2.2,18.8763667 2.9403,19.6166667 3.85,19.6166667 Z M3.85,17.05 C4.35526667,17.05 4.76666667,17.4610333 4.76666667,17.9666667 C4.76666667,18.4723 4.35526667,18.8833333 3.85,18.8833333 C3.34473333,18.8833333 2.93333333,18.4723 2.93333333,17.9666667 C2.93333333,17.4610333 3.34473333,17.05 3.85,17.05 Z" id="Shape"></path>
                    <circle id="Oval" cx="18.3333333" cy="17.7833333" r="1"></circle>
                    <circle id="Oval" cx="16.8666667" cy="17.7833333" r="1"></circle>
                    <circle id="Oval" cx="15.4" cy="17.7833333" r="1"></circle>
                    <circle id="Oval" cx="13.9333333" cy="17.7833333" r="1"></circle>
                    <circle id="Oval" cx="12.4666667" cy="17.7833333" r="1"></circle>
                </g>
            </g>
        </g>
    </g>
</svg>